# xmcd CD database file
#
# Track frame offsets:
#	150
#	8973
#	26096
#	38578
#	55952
#	82815
#	88733
#	113355
#	122771
#	135367
#	154433
#	168676
#	191616
#	214796
#
# Disc length: 3079 seconds
#
# Revision: 1
# Processed by: cddbd v1.5.2PL0 Copyright (c) Steve Scherf et al.
# Submitted via: CDex 1.70beta2
#
DISCID=b20c050e
DTITLE=The BLUESMEN of the MUDDY WATERS Chicago Blues Band - The BLUESMEN of the MUDDY WATERS Chicago Blues Band VOLUME ONE
DYEAR=2009
DGENRE=Blues
TTITLE0=Chicago Slide
TTITLE1=Creepin' Snake
TTITLE2=Lookout Victoria
TTITLE3=You Done Lost Your Good Thing Now
TTITLE4=Take Webster's Word For It
TTITLE5=Theme
TTITLE6=Ain't Nobody's Business What I Do
TTITLE7=Born in Georgia
TTITLE8=Trouble Hurts
TTITLE9=Watermelon Man
TTITLE10=Old Ugly Man Like Me
TTITLE11=Gave It All To Me
TTITLE12=You Know You Don't Love Me Baby
TTITLE13=Why Don't You Leave Me Alone
EXTD=YEAR: 2009
EXTT0=
EXTT1=
EXTT2=
EXTT3=
EXTT4=
EXTT5=
EXTT6=
EXTT7=
EXTT8=
EXTT9=
EXTT10=
EXTT11=
EXTT12=
EXTT13=
PLAYORDER=
